<svg xmlns="http://www.w3.org/2000/svg" xmlns:xlink="http://www.w3.org/1999/xlink" width="300" zoomAndPan="magnify" viewBox="0 0 224.87999 44.999999" height="60" preserveAspectRatio="xMidYMid meet" version="1.0"><defs><g/><clipPath id="3cd16f970f"><path d="M 139 1.519531 L 148 1.519531 L 148 14 L 139 14 Z M 139 1.519531 " clip-rule="nonzero"/></clipPath><clipPath id="b1e82eea00"><path d="M 119.402344 12 L 141 12 L 141 32 L 119.402344 32 Z M 119.402344 12 " clip-rule="nonzero"/></clipPath><clipPath id="0e06c8ee23"><path d="M 119.402344 12 L 142 12 L 142 35 L 119.402344 35 Z M 119.402344 12 " clip-rule="nonzero"/></clipPath><clipPath id="36410456a9"><path d="M 22 13.503906 L 63 13.503906 L 63 34 L 22 34 Z M 22 13.503906 " clip-rule="nonzero"/></clipPath></defs><g fill="#000000" fill-opacity="1"><g transform="translate(2.137018, 33.882944)"><g><path d="M 14.015625 -10.359375 C 15.179688 -10.109375 16.117188 -9.523438 16.828125 -8.609375 C 17.535156 -7.703125 17.890625 -6.664062 17.890625 -5.5 C 17.890625 -3.8125 17.300781 -2.472656 16.125 -1.484375 C 14.945312 -0.492188 13.300781 0 11.1875 0 L 1.78125 0 L 1.78125 -20.1875 L 10.875 -20.1875 C 12.925781 -20.1875 14.53125 -19.71875 15.6875 -18.78125 C 16.851562 -17.84375 17.4375 -16.566406 17.4375 -14.953125 C 17.4375 -13.765625 17.125 -12.773438 16.5 -11.984375 C 15.875 -11.203125 15.046875 -10.660156 14.015625 -10.359375 Z M 6.703125 -12.03125 L 9.921875 -12.03125 C 10.722656 -12.03125 11.335938 -12.207031 11.765625 -12.5625 C 12.203125 -12.914062 12.421875 -13.4375 12.421875 -14.125 C 12.421875 -14.8125 12.203125 -15.335938 11.765625 -15.703125 C 11.335938 -16.066406 10.722656 -16.25 9.921875 -16.25 L 6.703125 -16.25 Z M 10.328125 -3.96875 C 11.148438 -3.96875 11.785156 -4.15625 12.234375 -4.53125 C 12.691406 -4.90625 12.921875 -5.445312 12.921875 -6.15625 C 12.921875 -6.863281 12.679688 -7.414062 12.203125 -7.8125 C 11.734375 -8.21875 11.085938 -8.421875 10.265625 -8.421875 L 6.703125 -8.421875 L 6.703125 -3.96875 Z M 10.328125 -3.96875 "/></g></g></g><g fill="#000000" fill-opacity="1"><g transform="translate(21.097643, 33.882944)"><g/></g></g><g fill="#000000" fill-opacity="1"><g transform="translate(27.196059, 33.882944)"><g/></g></g><g fill="#000000" fill-opacity="1"><g transform="translate(33.294476, 33.882944)"><g/></g></g><g fill="#000000" fill-opacity="1"><g transform="translate(39.392892, 33.882944)"><g/></g></g><g fill="#000000" fill-opacity="1"><g transform="translate(45.491308, 33.882944)"><g/></g></g><g fill="#000000" fill-opacity="1"><g transform="translate(51.589725, 33.882944)"><g/></g></g><g fill="#000000" fill-opacity="1"><g transform="translate(57.688141, 33.882944)"><g/></g></g><g fill="#000000" fill-opacity="1"><g transform="translate(63.787739, 33.882944)"><g><path d="M 9.09375 0.203125 C 7.613281 0.203125 6.285156 -0.0351562 5.109375 -0.515625 C 3.941406 -0.992188 3.007812 -1.703125 2.3125 -2.640625 C 1.613281 -3.585938 1.242188 -4.722656 1.203125 -6.046875 L 6.4375 -6.046875 C 6.519531 -5.296875 6.78125 -4.722656 7.21875 -4.328125 C 7.65625 -3.929688 8.234375 -3.734375 8.953125 -3.734375 C 9.679688 -3.734375 10.253906 -3.898438 10.671875 -4.234375 C 11.097656 -4.578125 11.3125 -5.046875 11.3125 -5.640625 C 11.3125 -6.140625 11.140625 -6.550781 10.796875 -6.875 C 10.460938 -7.195312 10.050781 -7.460938 9.5625 -7.671875 C 9.070312 -7.890625 8.378906 -8.132812 7.484375 -8.40625 C 6.171875 -8.800781 5.101562 -9.203125 4.28125 -9.609375 C 3.457031 -10.015625 2.75 -10.609375 2.15625 -11.390625 C 1.5625 -12.179688 1.265625 -13.207031 1.265625 -14.46875 C 1.265625 -16.34375 1.941406 -17.8125 3.296875 -18.875 C 4.660156 -19.945312 6.4375 -20.484375 8.625 -20.484375 C 10.851562 -20.484375 12.644531 -19.945312 14 -18.875 C 15.363281 -17.8125 16.09375 -16.332031 16.1875 -14.4375 L 10.875 -14.4375 C 10.832031 -15.09375 10.59375 -15.609375 10.15625 -15.984375 C 9.71875 -16.359375 9.148438 -16.546875 8.453125 -16.546875 C 7.859375 -16.546875 7.378906 -16.382812 7.015625 -16.0625 C 6.648438 -15.75 6.46875 -15.296875 6.46875 -14.703125 C 6.46875 -14.046875 6.773438 -13.535156 7.390625 -13.171875 C 8.003906 -12.804688 8.960938 -12.414062 10.265625 -12 C 11.566406 -11.550781 12.625 -11.125 13.4375 -10.71875 C 14.257812 -10.320312 14.96875 -9.738281 15.5625 -8.96875 C 16.15625 -8.207031 16.453125 -7.222656 16.453125 -6.015625 C 16.453125 -4.859375 16.160156 -3.8125 15.578125 -2.875 C 14.992188 -1.9375 14.144531 -1.1875 13.03125 -0.625 C 11.914062 -0.0703125 10.601562 0.203125 9.09375 0.203125 Z M 9.09375 0.203125 "/></g></g></g><g fill="#000000" fill-opacity="1"><g transform="translate(81.478896, 33.882944)"><g><path d="M 9.09375 0.203125 C 7.613281 0.203125 6.285156 -0.0351562 5.109375 -0.515625 C 3.941406 -0.992188 3.007812 -1.703125 2.3125 -2.640625 C 1.613281 -3.585938 1.242188 -4.722656 1.203125 -6.046875 L 6.4375 -6.046875 C 6.519531 -5.296875 6.78125 -4.722656 7.21875 -4.328125 C 7.65625 -3.929688 8.234375 -3.734375 8.953125 -3.734375 C 9.679688 -3.734375 10.253906 -3.898438 10.671875 -4.234375 C 11.097656 -4.578125 11.3125 -5.046875 11.3125 -5.640625 C 11.3125 -6.140625 11.140625 -6.550781 10.796875 -6.875 C 10.460938 -7.195312 10.050781 -7.460938 9.5625 -7.671875 C 9.070312 -7.890625 8.378906 -8.132812 7.484375 -8.40625 C 6.171875 -8.800781 5.101562 -9.203125 4.28125 -9.609375 C 3.457031 -10.015625 2.75 -10.609375 2.15625 -11.390625 C 1.5625 -12.179688 1.265625 -13.207031 1.265625 -14.46875 C 1.265625 -16.34375 1.941406 -17.8125 3.296875 -18.875 C 4.660156 -19.945312 6.4375 -20.484375 8.625 -20.484375 C 10.851562 -20.484375 12.644531 -19.945312 14 -18.875 C 15.363281 -17.8125 16.09375 -16.332031 16.1875 -14.4375 L 10.875 -14.4375 C 10.832031 -15.09375 10.59375 -15.609375 10.15625 -15.984375 C 9.71875 -16.359375 9.148438 -16.546875 8.453125 -16.546875 C 7.859375 -16.546875 7.378906 -16.382812 7.015625 -16.0625 C 6.648438 -15.75 6.46875 -15.296875 6.46875 -14.703125 C 6.46875 -14.046875 6.773438 -13.535156 7.390625 -13.171875 C 8.003906 -12.804688 8.960938 -12.414062 10.265625 -12 C 11.566406 -11.550781 12.625 -11.125 13.4375 -10.71875 C 14.257812 -10.320312 14.96875 -9.738281 15.5625 -8.96875 C 16.15625 -8.207031 16.453125 -7.222656 16.453125 -6.015625 C 16.453125 -4.859375 16.160156 -3.8125 15.578125 -2.875 C 14.992188 -1.9375 14.144531 -1.1875 13.03125 -0.625 C 11.914062 -0.0703125 10.601562 0.203125 9.09375 0.203125 Z M 9.09375 0.203125 "/></g></g></g><g fill="#000000" fill-opacity="1"><g transform="translate(99.170053, 33.882944)"><g><path d="M 16.3125 -20.1875 L 16.3125 -16.25 L 10.953125 -16.25 L 10.953125 0 L 6.046875 0 L 6.046875 -16.25 L 0.6875 -16.25 L 0.6875 -20.1875 Z M 16.3125 -20.1875 "/></g></g></g><g fill="#000000" fill-opacity="1"><g transform="translate(116.17279, 33.882944)"><g/></g></g><path fill="#5a4be4" d="M 126.902344 27.167969 C 126.226562 25.988281 125.847656 24.605469 125.847656 23.132812 L 125.847656 23.066406 C 125.847656 18.863281 128.859375 15.429688 133.203125 15.429688 C 134.605469 15.429688 135.878906 15.796875 136.960938 16.433594 C 138.511719 14.46875 139.664062 12.882812 140.121094 12.246094 C 138.171875 11.109375 135.847656 10.457031 133.273438 10.457031 C 125.707031 10.457031 120.210938 16.164062 120.210938 23.132812 L 120.210938 23.203125 C 120.210938 25.625 120.867188 27.882812 122.035156 29.804688 C 123.335938 29.605469 124.972656 28.714844 126.902344 27.167969 Z M 126.902344 27.167969 " fill-opacity="1" fill-rule="nonzero"/><g clip-path="url(#3cd16f970f)"><path fill="#5a4be4" d="M 144.957031 10.945312 C 144.875 10.433594 144.691406 10.023438 144.554688 9.773438 C 148.449219 5.367188 147.75 1.527344 147.75 1.527344 C 147.75 1.527344 144.003906 2.617188 141.800781 8.070312 C 141.515625 8.058594 141.066406 8.078125 140.570312 8.230469 C 140.390625 8.289062 140.238281 8.410156 140.140625 8.570312 C 139.972656 8.859375 139.679688 9.441406 139.328125 10.472656 C 139.328125 10.472656 140.152344 9.90625 140.554688 9.789062 C 140.589844 9.777344 140.625 9.777344 140.664062 9.785156 L 141.0625 9.898438 C 141.121094 9.914062 141.152344 9.972656 141.136719 10.03125 C 141.074219 10.257812 141.011719 10.496094 140.953125 10.734375 C 140.933594 10.816406 140.96875 10.902344 141.039062 10.945312 L 142.320312 11.738281 C 142.390625 11.78125 142.484375 11.777344 142.546875 11.722656 C 142.738281 11.5625 142.921875 11.402344 143.097656 11.242188 C 143.140625 11.203125 143.207031 11.207031 143.246094 11.25 L 143.527344 11.558594 C 143.550781 11.585938 143.566406 11.621094 143.574219 11.65625 C 143.644531 12.066406 143.507812 13.058594 143.507812 13.058594 C 144.277344 12.28125 144.664062 11.761719 144.847656 11.480469 C 144.949219 11.320312 144.988281 11.132812 144.957031 10.945312 Z M 141.496094 10.191406 C 141.496094 10.191406 142.179688 7.449219 144.292969 4.636719 C 145.605469 2.886719 146.777344 2.363281 147.1875 2.191406 C 146.75 2.542969 146.527344 2.742188 146.203125 3.113281 C 146.203125 3.113281 146.746094 3.382812 146.984375 3.769531 L 146.6875 4.34375 C 146.609375 4.160156 146.476562 3.996094 146.292969 3.882812 C 145.824219 3.589844 145.207031 3.738281 144.917969 4.207031 C 144.625 4.675781 144.769531 5.292969 145.242188 5.582031 C 145.421875 5.695312 145.628906 5.742188 145.828125 5.730469 C 145.59375 6.070312 144.9375 7.136719 143.910156 8.339844 C 143.972656 7.75 144.027344 7.3125 144.492188 6.109375 C 144.492188 6.109375 143.460938 7.59375 142.566406 10.3125 C 142.40625 10.339844 142.125 10.28125 141.730469 10.113281 C 141.730469 10.113281 141.984375 10.4375 142.6875 10.953125 C 142.6875 10.953125 141.953125 10.597656 141.496094 10.191406 Z M 146.242188 5.027344 C 146.078125 5.289062 145.734375 5.371094 145.472656 5.207031 C 145.210938 5.046875 145.128906 4.703125 145.292969 4.441406 C 145.453125 4.175781 145.800781 4.097656 146.0625 4.257812 C 146.324219 4.421875 146.40625 4.765625 146.242188 5.027344 Z M 146.242188 5.027344 " fill-opacity="1" fill-rule="nonzero"/></g><g clip-path="url(#b1e82eea00)"><path fill="#5a4be4" d="M 140.792969 12.253906 C 140.792969 12.253906 125.042969 34.699219 119.582031 29.640625 C 119.582031 29.640625 124.789062 40.257812 140.792969 12.253906 Z M 140.792969 12.253906 " fill-opacity="1" fill-rule="nonzero"/></g><path fill="#000000" d="M 144.09375 30.171875 C 145.457031 28.140625 146.265625 25.726562 146.265625 23.132812 L 146.265625 23.066406 C 146.265625 19.085938 144.496094 15.539062 141.570312 13.230469 C 140.773438 15.109375 139.984375 16.875 139.199219 18.515625 C 140.109375 19.808594 140.625 21.414062 140.625 23.132812 L 140.625 23.203125 C 140.625 24.429688 140.382812 25.585938 139.960938 26.566406 L 136.613281 23.539062 C 135.691406 25.183594 134.777344 26.65625 133.878906 27.949219 L 136.492188 30.171875 C 135.546875 30.628906 134.464844 30.839844 133.273438 30.839844 C 132.746094 30.839844 132.238281 30.785156 131.753906 30.6875 C 130.15625 32.511719 128.59375 33.757812 127.078125 34.414062 C 128.867188 35.304688 130.941406 35.8125 133.203125 35.8125 C 135.933594 35.8125 138.421875 35.039062 140.488281 33.710938 L 143.183594 36.125 L 146.613281 32.308594 Z M 144.09375 30.171875 " fill-opacity="1" fill-rule="nonzero"/><g clip-path="url(#0e06c8ee23)"><path fill="#000000" d="M 141.332031 12.429688 C 141.332031 12.429688 126.738281 39.875 119.402344 30.710938 C 119.402344 30.710938 127.050781 46.640625 141.332031 12.429688 Z M 141.332031 12.429688 " fill-opacity="1" fill-rule="nonzero"/></g><g fill="#000000" fill-opacity="1"><g transform="translate(148.245458, 33.882944)"><g><path d="M 6.609375 -20.1875 L 6.609375 -8.109375 C 6.609375 -6.898438 6.90625 -5.96875 7.5 -5.3125 C 8.101562 -4.664062 8.976562 -4.34375 10.125 -4.34375 C 11.269531 -4.34375 12.148438 -4.664062 12.765625 -5.3125 C 13.378906 -5.96875 13.6875 -6.898438 13.6875 -8.109375 L 13.6875 -20.1875 L 18.609375 -20.1875 L 18.609375 -8.140625 C 18.609375 -6.335938 18.222656 -4.8125 17.453125 -3.5625 C 16.691406 -2.320312 15.660156 -1.382812 14.359375 -0.75 C 13.066406 -0.113281 11.628906 0.203125 10.046875 0.203125 C 8.453125 0.203125 7.023438 -0.109375 5.765625 -0.734375 C 4.515625 -1.359375 3.523438 -2.296875 2.796875 -3.546875 C 2.066406 -4.804688 1.703125 -6.335938 1.703125 -8.140625 L 1.703125 -20.1875 Z M 6.609375 -20.1875 "/></g></g></g><g fill="#000000" fill-opacity="1"><g transform="translate(168.525563, 33.882944)"><g><path d="M 6.703125 -16.25 L 6.703125 -12.171875 L 13.296875 -12.171875 L 13.296875 -8.375 L 6.703125 -8.375 L 6.703125 -3.9375 L 14.15625 -3.9375 L 14.15625 0 L 1.78125 0 L 1.78125 -20.1875 L 14.15625 -20.1875 L 14.15625 -16.25 Z M 6.703125 -16.25 "/></g></g></g><g fill="#000000" fill-opacity="1"><g transform="translate(184.08803, 33.882944)"><g><path d="M 12.078125 0 L 7.875 -7.625 L 6.703125 -7.625 L 6.703125 0 L 1.78125 0 L 1.78125 -20.1875 L 10.046875 -20.1875 C 11.628906 -20.1875 12.984375 -19.910156 14.109375 -19.359375 C 15.234375 -18.804688 16.070312 -18.046875 16.625 -17.078125 C 17.175781 -16.109375 17.453125 -15.03125 17.453125 -13.84375 C 17.453125 -12.5 17.070312 -11.296875 16.3125 -10.234375 C 15.5625 -9.179688 14.445312 -8.4375 12.96875 -8 L 17.640625 0 Z M 6.703125 -11.109375 L 9.75 -11.109375 C 10.65625 -11.109375 11.332031 -11.328125 11.78125 -11.765625 C 12.226562 -12.203125 12.453125 -12.828125 12.453125 -13.640625 C 12.453125 -14.398438 12.226562 -15 11.78125 -15.4375 C 11.332031 -15.882812 10.65625 -16.109375 9.75 -16.109375 L 6.703125 -16.109375 Z M 6.703125 -11.109375 "/></g></g></g><g fill="#000000" fill-opacity="1"><g transform="translate(202.843532, 33.882944)"><g><path d="M 19.09375 -20.1875 L 12.109375 -6.671875 L 12.109375 0 L 7.1875 0 L 7.1875 -6.671875 L 0.203125 -20.1875 L 5.78125 -20.1875 L 9.6875 -11.734375 L 13.578125 -20.1875 Z M 19.09375 -20.1875 "/></g></g></g><g clip-path="url(#36410456a9)"><path fill="#1f1f23" d="M 52.300781 13.613281 C 50.832031 13.605469 49.429688 13.902344 48.09375 14.503906 C 46.757812 15.109375 45.613281 15.960938 44.65625 17.066406 L 43.175781 18.753906 L 46.480469 22.527344 L 48.429688 20.304688 C 48.914062 19.746094 49.496094 19.3125 50.171875 19.007812 C 50.847656 18.703125 51.558594 18.550781 52.300781 18.554688 C 52.632812 18.550781 52.957031 18.578125 53.28125 18.636719 C 53.605469 18.699219 53.921875 18.789062 54.226562 18.910156 C 54.53125 19.03125 54.824219 19.183594 55.097656 19.359375 C 55.375 19.539062 55.628906 19.742188 55.863281 19.972656 C 56.097656 20.199219 56.304688 20.449219 56.492188 20.71875 C 56.675781 20.988281 56.832031 21.273438 56.957031 21.574219 C 57.085938 21.875 57.179688 22.183594 57.246094 22.503906 C 57.3125 22.824219 57.34375 23.148438 57.34375 23.472656 C 57.34375 23.796875 57.3125 24.121094 57.246094 24.441406 C 57.179688 24.757812 57.085938 25.070312 56.957031 25.371094 C 56.832031 25.671875 56.675781 25.957031 56.492188 26.226562 C 56.304688 26.496094 56.097656 26.746094 55.863281 26.972656 C 55.628906 27.203125 55.375 27.40625 55.097656 27.585938 C 54.824219 27.761719 54.53125 27.914062 54.226562 28.035156 C 53.921875 28.15625 53.605469 28.246094 53.28125 28.304688 C 52.957031 28.367188 52.632812 28.394531 52.300781 28.390625 C 51.5625 28.394531 50.851562 28.246094 50.179688 27.941406 C 49.503906 27.636719 48.925781 27.203125 48.441406 26.648438 C 41.203125 18.382812 44.644531 22.320312 40.046875 17.058594 C 39.089844 15.957031 37.945312 15.105469 36.609375 14.503906 C 35.273438 13.902344 33.871094 13.605469 32.402344 13.613281 C 31.742188 13.609375 31.089844 13.667969 30.445312 13.792969 C 29.800781 13.914062 29.171875 14.097656 28.566406 14.34375 C 27.957031 14.589844 27.378906 14.894531 26.828125 15.25 C 26.28125 15.609375 25.773438 16.019531 25.308594 16.476562 C 24.839844 16.933594 24.425781 17.433594 24.058594 17.972656 C 23.691406 18.515625 23.382812 19.082031 23.128906 19.683594 C 22.875 20.285156 22.683594 20.902344 22.554688 21.539062 C 22.425781 22.179688 22.363281 22.820312 22.363281 23.472656 C 22.363281 24.121094 22.425781 24.765625 22.554688 25.402344 C 22.683594 26.042969 22.875 26.660156 23.128906 27.261719 C 23.382812 27.859375 23.691406 28.429688 24.058594 28.972656 C 24.425781 29.511719 24.839844 30.007812 25.308594 30.46875 C 25.773438 30.925781 26.28125 31.335938 26.828125 31.691406 C 27.378906 32.050781 27.957031 32.355469 28.566406 32.601562 C 29.171875 32.847656 29.800781 33.03125 30.445312 33.152344 C 31.089844 33.277344 31.742188 33.335938 32.402344 33.332031 C 33.871094 33.339844 35.273438 33.042969 36.609375 32.441406 C 37.945312 31.835938 39.09375 30.984375 40.046875 29.878906 L 41.527344 28.191406 L 38.222656 24.417969 L 36.273438 26.640625 C 35.789062 27.199219 35.210938 27.632812 34.53125 27.9375 C 33.855469 28.242188 33.144531 28.394531 32.402344 28.390625 C 32.070312 28.394531 31.746094 28.367188 31.421875 28.304688 C 31.097656 28.246094 30.78125 28.15625 30.476562 28.035156 C 30.171875 27.914062 29.882812 27.761719 29.605469 27.585938 C 29.332031 27.40625 29.074219 27.203125 28.839844 26.972656 C 28.605469 26.746094 28.398438 26.496094 28.210938 26.226562 C 28.027344 25.957031 27.871094 25.671875 27.746094 25.371094 C 27.617188 25.070312 27.523438 24.757812 27.457031 24.441406 C 27.394531 24.121094 27.359375 23.796875 27.359375 23.472656 C 27.359375 23.148438 27.394531 22.824219 27.457031 22.503906 C 27.523438 22.183594 27.617188 21.875 27.746094 21.574219 C 27.871094 21.273438 28.027344 20.988281 28.210938 20.71875 C 28.398438 20.449219 28.605469 20.199219 28.839844 19.972656 C 29.074219 19.742188 29.332031 19.539062 29.605469 19.359375 C 29.882812 19.183594 30.171875 19.03125 30.476562 18.910156 C 30.78125 18.789062 31.097656 18.699219 31.421875 18.636719 C 31.746094 18.578125 32.070312 18.550781 32.402344 18.554688 C 33.140625 18.550781 33.851562 18.699219 34.527344 19.003906 C 35.199219 19.308594 35.777344 19.738281 36.261719 20.296875 C 43.5 28.5625 40.058594 24.625 44.65625 29.882812 C 44.925781 30.203125 45.214844 30.5 45.523438 30.785156 C 45.832031 31.066406 46.15625 31.328125 46.496094 31.570312 C 46.835938 31.808594 47.191406 32.03125 47.5625 32.226562 C 47.929688 32.425781 48.3125 32.597656 48.703125 32.75 C 49.09375 32.898438 49.492188 33.023438 49.898438 33.125 C 50.304688 33.226562 50.71875 33.300781 51.132812 33.347656 C 51.550781 33.398438 51.96875 33.421875 52.386719 33.417969 C 52.808594 33.417969 53.226562 33.386719 53.640625 33.335938 C 54.058594 33.28125 54.46875 33.199219 54.875 33.09375 C 55.28125 32.988281 55.675781 32.859375 56.066406 32.703125 C 56.457031 32.546875 56.832031 32.371094 57.199219 32.167969 C 57.566406 31.964844 57.917969 31.742188 58.257812 31.496094 C 58.59375 31.25 58.917969 30.984375 59.21875 30.699219 C 59.523438 30.414062 59.808594 30.109375 60.074219 29.789062 C 60.339844 29.46875 60.585938 29.132812 60.808594 28.78125 C 61.03125 28.429688 61.230469 28.066406 61.410156 27.691406 C 61.585938 27.3125 61.738281 26.929688 61.867188 26.53125 C 61.992188 26.136719 62.09375 25.738281 62.171875 25.328125 C 62.25 24.921875 62.300781 24.507812 62.324219 24.09375 C 62.347656 23.679688 62.347656 23.265625 62.320312 22.851562 C 62.289062 22.4375 62.238281 22.027344 62.15625 21.621094 C 62.074219 21.214844 61.96875 20.8125 61.839844 20.417969 C 61.707031 20.027344 61.550781 19.640625 61.371094 19.265625 C 61.191406 18.890625 60.988281 18.53125 60.761719 18.179688 C 60.535156 17.832031 60.289062 17.496094 60.019531 17.179688 C 59.753906 16.859375 59.464844 16.558594 59.15625 16.273438 C 58.851562 15.992188 58.527344 15.730469 58.1875 15.488281 C 57.847656 15.242188 57.492188 15.023438 57.125 14.824219 C 56.757812 14.625 56.378906 14.449219 55.988281 14.296875 C 55.597656 14.148438 55.199219 14.019531 54.789062 13.917969 C 54.382812 13.816406 53.972656 13.738281 53.554688 13.6875 C 53.140625 13.636719 52.722656 13.613281 52.300781 13.613281 Z M 52.300781 13.613281 " fill-opacity="1" fill-rule="nonzero"/></g></svg>
