<svg width="366" height="110" viewBox="0 0 366 110" fill="none" xmlns="http://www.w3.org/2000/svg">
<rect opacity="0.5" y="79" width="241.625" height="1" fill="white"/>
<rect opacity="0.5" x="315.625" y="79" width="50.625" height="1" fill="white"/>
<path d="M256.121 97.2866L290.847 65.7175C292.319 64.3792 293.055 63.71 293.895 63.4372C294.636 63.1968 295.429 63.1718 296.183 63.3651C297.038 63.5844 297.815 64.2058 299.369 65.4487L310.852 74.6354C312.405 75.8772 313.181 76.4982 313.768 77.2461C314.506 78.1861 315.029 79.2757 315.302 80.439C315.52 81.3647 315.52 82.3586 315.52 84.3465C315.52 90.2547 315.52 94.9663 314.527 97.2866C313.281 100.199 313.765 100.762 310.852 102.008C308.532 103.001 302.773 103.001 296.865 103.001H258.33C255.691 103.001 252.059 103.019 251.478 102.508C250.974 102.065 253.03 101.386 253.105 100.719C253.191 99.9501 254.168 99.0622 256.121 97.2866Z" fill="white" fill-opacity="0.1"/>
<path d="M264.204 59.8957C268.738 59.8957 272.414 56.2197 272.414 51.6851C272.414 47.1506 268.738 43.4746 264.204 43.4746C259.669 43.4746 255.993 47.1506 255.993 51.6851C255.993 56.2197 259.669 59.8957 264.204 59.8957Z" fill="white" fill-opacity="0.1"/>
<path d="M305.809 49.6316V51.1316H308.809V49.6316H305.809ZM308.809 25V23.5H305.809V25H308.809ZM294.993 35.8158H293.493V38.8158H294.993V35.8158ZM319.625 38.8158H321.125V35.8158H319.625V38.8158ZM280.625 30.6053H282.125V27.6053H280.625V30.6053ZM246.108 102.105L246.789 100.769L246.789 100.769L246.108 102.105ZM242.52 98.517L241.183 99.198H241.183L242.52 98.517ZM311.037 102.105L310.356 100.769L310.356 100.769L311.037 102.105ZM314.625 98.517L313.288 97.836L313.288 97.836L314.625 98.517ZM242.52 33.5883L241.183 32.9073H241.183L242.52 33.5883ZM246.108 30.0002L245.427 28.6636H245.427L246.108 30.0002ZM290.847 65.7166L291.856 66.8265H291.856L290.847 65.7166ZM249.836 103L248.827 101.89C248.368 102.307 248.213 102.963 248.436 103.541C248.66 104.119 249.216 104.5 249.836 104.5V103ZM315.52 78.3684H317.02V77.6475L316.457 77.1971L315.52 78.3684ZM299.369 65.4478L300.306 64.2765L299.369 65.4478ZM282.678 104.5H284.178V101.5H282.678V104.5ZM293.895 63.4363L293.432 62.0097L293.895 63.4363ZM296.183 63.3641L295.811 64.8171L296.183 63.3641ZM308.809 49.6316V25H305.809V49.6316H308.809ZM294.993 38.8158H319.625V35.8158H294.993V38.8158ZM270.914 51.6842C270.914 55.3903 267.91 58.3947 264.204 58.3947V61.3947C269.567 61.3947 273.914 57.0472 273.914 51.6842H270.914ZM264.204 58.3947C260.498 58.3947 257.493 55.3903 257.493 51.6842H254.493C254.493 57.0472 258.841 61.3947 264.204 61.3947V58.3947ZM257.493 51.6842C257.493 47.9781 260.498 44.9737 264.204 44.9737V41.9737C258.841 41.9737 254.493 46.3212 254.493 51.6842H257.493ZM264.204 44.9737C267.91 44.9737 270.914 47.9781 270.914 51.6842H273.914C273.914 46.3212 269.567 41.9737 264.204 41.9737V44.9737ZM302.383 101.5H254.762V104.5H302.383V101.5ZM243.125 89.8632V42.2421H240.125V89.8632H243.125ZM254.762 30.6053H280.625V27.6053H254.762V30.6053ZM254.762 101.5C252.438 101.5 250.785 101.499 249.491 101.393C248.215 101.289 247.42 101.09 246.789 100.769L245.427 103.442C246.552 104.015 247.785 104.264 249.247 104.383C250.691 104.501 252.487 104.5 254.762 104.5V101.5ZM240.125 89.8632C240.125 92.1376 240.124 93.9336 240.242 95.378C240.361 96.8399 240.61 98.0731 241.183 99.198L243.856 97.836C243.535 97.2045 243.336 96.41 243.232 95.1337C243.126 93.8398 243.125 92.1871 243.125 89.8632H240.125ZM246.789 100.769C245.526 100.125 244.5 99.0987 243.856 97.836L241.183 99.198C242.114 101.025 243.6 102.511 245.427 103.442L246.789 100.769ZM302.383 104.5C304.657 104.5 306.453 104.501 307.898 104.383C309.36 104.264 310.593 104.015 311.718 103.442L310.356 100.769C309.724 101.09 308.93 101.289 307.653 101.393C306.36 101.499 304.707 101.5 302.383 101.5V104.5ZM314.02 89.8632C314.02 92.1871 314.019 93.8398 313.913 95.1337C313.809 96.41 313.61 97.2045 313.288 97.836L315.961 99.198C316.535 98.0731 316.783 96.8399 316.903 95.378C317.021 93.9336 317.02 92.1376 317.02 89.8632H314.02ZM311.718 103.442C313.545 102.511 315.03 101.025 315.961 99.198L313.288 97.836C312.645 99.0987 311.618 100.125 310.356 100.769L311.718 103.442ZM243.125 42.2421C243.125 39.9182 243.126 38.2655 243.232 36.9716C243.336 35.6952 243.535 34.9007 243.856 34.2693L241.183 32.9073C240.61 34.0322 240.361 35.2654 240.242 36.7273C240.124 38.1717 240.125 39.9677 240.125 42.2421H243.125ZM254.762 27.6053C252.487 27.6053 250.691 27.6041 249.247 27.7221C247.785 27.8415 246.552 28.0905 245.427 28.6636L246.789 31.3367C247.42 31.0149 248.215 30.8164 249.491 30.7121C250.785 30.6064 252.438 30.6053 254.762 30.6053V27.6053ZM243.856 34.2693C244.5 33.0066 245.526 31.98 246.789 31.3367L245.427 28.6636C243.6 29.5946 242.114 31.0802 241.183 32.9073L243.856 34.2693ZM289.838 64.6067L248.827 101.89L250.845 104.11L291.856 66.8265L289.838 64.6067ZM316.457 77.1971L300.306 64.2765L298.432 66.6191L314.583 79.5397L316.457 77.1971ZM249.836 104.5H282.678V101.5H249.836V104.5ZM291.856 66.8265C292.609 66.1421 293.113 65.6856 293.531 65.36C293.933 65.046 294.17 64.9242 294.359 64.8629L293.432 62.0097C292.781 62.2212 292.229 62.5705 291.686 62.9938C291.158 63.4056 290.558 63.9528 289.838 64.6067L291.856 66.8265ZM300.306 64.2765C299.547 63.6692 298.913 63.1609 298.36 62.7833C297.791 62.395 297.219 62.0812 296.556 61.9111L295.811 64.8171C296.003 64.8664 296.247 64.973 296.668 65.261C297.106 65.5596 297.637 65.9835 298.432 66.6191L300.306 64.2765ZM294.359 64.8629C294.829 64.7104 295.332 64.6945 295.811 64.8171L296.556 61.9111C295.526 61.6472 294.443 61.6814 293.432 62.0097L294.359 64.8629ZM314.02 78.3684V89.8632H317.02V78.3684H314.02Z" fill="white"/>
</svg>
