<svg width="367" height="110" viewBox="0 0 367 110" fill="none" xmlns="http://www.w3.org/2000/svg">
<rect opacity="0.5" y="79" width="246.043" height="1" fill="#2F2B24"/>
<rect opacity="0.5" width="56.207" height="1" transform="matrix(-1 0 0 1 366.25 79)" fill="#2F2B24"/>
<path d="M246.043 67.1363C246.043 62.0959 246.043 59.5756 247.024 57.6504C247.887 55.957 249.264 54.5801 250.957 53.7173C252.882 52.7363 255.402 52.7363 260.443 52.7363H297.327C302.368 52.7363 304.888 52.7363 306.813 53.7173C308.507 54.5801 309.883 55.957 310.746 57.6504C311.727 59.5756 311.727 62.0959 311.727 67.1363V87.5995C311.727 92.64 311.727 95.1602 310.746 97.0854C309.883 98.7789 308.507 100.156 306.813 101.019C304.888 101.999 302.368 101.999 297.327 101.999H260.443C255.402 101.999 252.882 101.999 250.957 101.019C249.264 100.156 247.887 98.7789 247.024 97.0854C246.043 95.1602 246.043 92.64 246.043 87.5995V67.1363Z" fill="#2F2B24" fill-opacity="0.1"/>
<path d="M299.411 52.7368V44.5263C299.411 33.1899 290.221 24 278.885 24C267.549 24 258.359 33.1899 258.359 44.5263V52.7368M278.885 73.2632V81.4737M259.18 102H298.59C303.189 102 305.488 102 307.244 101.105C308.789 100.318 310.045 99.0619 310.832 97.517C311.727 95.7607 311.727 93.4615 311.727 88.8632V65.8737C311.727 61.2754 311.727 58.9762 310.832 57.2199C310.045 55.675 308.789 54.4189 307.244 53.6317C305.488 52.7368 303.189 52.7368 298.59 52.7368H259.18C254.581 52.7368 252.282 52.7368 250.526 53.6317C248.981 54.4189 247.725 55.675 246.938 57.2199C246.043 58.9762 246.043 61.2754 246.043 65.8737V88.8632C246.043 93.4615 246.043 95.7607 246.938 97.517C247.725 99.0619 248.981 100.318 250.526 101.105C252.282 102 254.581 102 259.18 102Z" stroke="#2F2B24" stroke-width="3" stroke-linecap="square"/>
</svg>
