<svg width="500" height="516" viewBox="0 0 500 516" fill="none" xmlns="http://www.w3.org/2000/svg">
<rect width="500" height="516" fill="#F5F0FC"/>
<path d="M250.5 477C250.5 477 426 389.2 426 257.5V174.09C426 150.122 426 138.138 422.978 130.418C419.599 121.786 417.47 118.816 410.382 112.845C404.043 107.506 388.421 102.214 357.177 91.6293C300.968 72.5883 258.45 38 250.5 38C242.55 38 200.032 72.5883 143.823 91.6293C112.579 102.214 96.9569 107.506 90.6182 112.845C83.5301 118.816 81.4009 121.786 78.0218 130.418C75 138.138 75 150.122 75 174.09V257.5C75 389.2 250.5 477 250.5 477Z" stroke="#E9DAFF" stroke-width="4" stroke-linecap="square"/>
<rect x="187" y="334" width="125" height="50" rx="19" fill="#E9DAFF"/>
<rect x="187" y="334" width="125" height="50" rx="19" stroke="#BD95FF" stroke-width="2"/>
<path d="M228.665 351L213.999 365.667L207.332 359" stroke="#2F2B23" stroke-width="2.33333" stroke-linecap="square"/>
<path d="M250.888 368.932C246.055 368.932 243.085 366.313 242.896 362.209H246.001C246.163 364.882 248.242 366.421 250.996 366.421C253.588 366.421 255.289 365.341 255.289 363.397C255.289 361.777 254.02 360.994 251.86 360.535L248.836 359.887C245.92 359.266 243.571 357.565 243.571 354.622C243.571 351.409 246.568 349.141 250.699 349.141C255.127 349.141 257.8 351.517 258.016 355.108H254.911C254.803 353.11 253.291 351.652 250.591 351.652C248.323 351.652 246.622 352.705 246.622 354.352C246.622 355.891 247.81 356.647 249.862 357.079L253.129 357.781C256.099 358.402 258.367 360.049 258.367 363.073C258.367 366.394 255.64 368.932 250.888 368.932ZM268.073 368.932C263.24 368.932 260.27 366.313 260.081 362.209H263.186C263.348 364.882 265.427 366.421 268.181 366.421C270.773 366.421 272.474 365.341 272.474 363.397C272.474 361.777 271.205 360.994 269.045 360.535L266.021 359.887C263.105 359.266 260.756 357.565 260.756 354.622C260.756 351.409 263.753 349.141 267.884 349.141C272.312 349.141 274.985 351.517 275.201 355.108H272.096C271.988 353.11 270.476 351.652 267.776 351.652C265.508 351.652 263.807 352.705 263.807 354.352C263.807 355.891 264.995 356.647 267.047 357.079L270.314 357.781C273.284 358.402 275.552 360.049 275.552 363.073C275.552 366.394 272.825 368.932 268.073 368.932ZM286.662 368.932C281.478 368.932 277.563 365.179 277.563 359.05C277.563 353.029 281.478 349.141 286.662 349.141C291.873 349.141 295.815 353.083 295.815 359.05C295.815 365.179 291.846 368.932 286.662 368.932ZM280.668 359.05C280.668 363.667 283.071 366.421 286.662 366.421C290.253 366.421 292.71 363.694 292.71 359.05C292.71 354.514 290.253 351.679 286.662 351.679C283.098 351.679 280.668 354.487 280.668 359.05Z" fill="#2F2B24"/>
<rect x="30" y="334" width="143" height="50" rx="19" fill="#E9DAFF"/>
<rect x="30" y="334" width="143" height="50" rx="19" stroke="#BD95FF" stroke-width="2"/>
<path d="M71.6654 351L56.9987 365.667L50.332 359" stroke="#2F2B23" stroke-width="2.33333" stroke-linecap="square"/>
<path d="M94.137 368.932C89.304 368.932 86.334 366.313 86.145 362.209H89.25C89.412 364.882 91.491 366.421 94.245 366.421C96.837 366.421 98.538 365.341 98.538 363.397C98.538 361.777 97.269 360.994 95.109 360.535L92.085 359.887C89.169 359.266 86.82 357.565 86.82 354.622C86.82 351.409 89.817 349.141 93.948 349.141C98.376 349.141 101.049 351.517 101.265 355.108H98.16C98.052 353.11 96.54 351.652 93.84 351.652C91.572 351.652 89.871 352.705 89.871 354.352C89.871 355.891 91.059 356.647 93.111 357.079L96.378 357.781C99.348 358.402 101.616 360.049 101.616 363.073C101.616 366.394 98.889 368.932 94.137 368.932ZM112.726 368.932C107.542 368.932 103.627 365.179 103.627 359.05C103.627 353.029 107.542 349.141 112.726 349.141C117.937 349.141 121.879 353.083 121.879 359.05C121.879 365.179 117.91 368.932 112.726 368.932ZM106.732 359.05C106.732 363.667 109.135 366.421 112.726 366.421C116.317 366.421 118.774 363.694 118.774 359.05C118.774 354.514 116.317 351.679 112.726 351.679C109.162 351.679 106.732 354.487 106.732 359.05ZM133.049 368.932C127.541 368.932 123.923 365.233 123.923 358.915C123.923 352.948 127.892 349.141 133.157 349.141C137.747 349.141 140.987 351.868 141.392 355.972H138.206C137.801 353.353 136.046 351.679 133.103 351.679C129.512 351.679 127.028 354.406 127.028 358.915C127.028 363.505 129.539 366.394 133.076 366.394C136.019 366.394 137.963 364.612 138.395 362.02H141.446C140.96 366.232 137.828 368.932 133.049 368.932ZM143.164 368.5C143.218 365.152 144.946 363.478 147.997 361.237L149.833 359.86C151.669 358.51 153.37 356.998 153.37 354.865C153.37 352.894 152.128 351.544 150.076 351.544C147.781 351.544 146.404 353.137 146.404 355.945V356.215H143.38V355.81C143.38 351.706 146.08 349.141 150.076 349.141C153.856 349.141 156.313 351.463 156.313 354.865C156.313 358.024 154.207 360.022 151.075 362.317L149.779 363.262C147.97 364.585 147.187 365.233 146.971 365.827H156.475V368.5H143.164Z" fill="#2F2B24"/>
<rect x="326" y="334" width="145" height="50" rx="19" fill="#E9DAFF"/>
<rect x="326" y="334" width="145" height="50" rx="19" stroke="#BD95FF" stroke-width="2"/>
<path d="M367.665 351L352.999 365.667L346.332 359" stroke="#2F2B23" stroke-width="2.33333" stroke-linecap="square"/>
<path d="M391.588 368.932C386.134 368.932 382.651 364.882 382.651 359.104C382.651 352.921 386.674 349.141 391.993 349.141C396.421 349.141 399.526 351.679 399.904 355.27H396.772C396.475 353.191 394.612 351.679 392.02 351.679C388.375 351.679 385.756 354.325 385.756 359.104C385.756 363.451 388.267 366.421 391.912 366.421C395.044 366.421 397.258 364.558 397.258 361.291V361.048H391.723V358.51H399.985V368.5H397.366V367.771C397.366 367.177 397.393 366.556 397.447 365.935C396.502 367.636 394.396 368.932 391.588 368.932ZM403.527 368.5V349.6H409.71C415.947 349.6 419.781 352.597 419.781 359.05C419.781 364.774 416.433 368.5 410.034 368.5H403.527ZM406.524 365.962H409.764C414.03 365.962 416.703 363.883 416.703 359.05C416.703 354.649 414.462 352.111 409.71 352.111H406.524V365.962ZM422.927 368.5V349.6H430.568C434.186 349.6 437.264 351.031 437.264 355.108C437.264 359.239 434.186 360.616 430.568 360.616H425.924V368.5H422.927ZM425.924 358.105H430.568C433.133 358.105 434.186 356.944 434.186 355.108C434.186 353.272 433.16 352.111 430.568 352.111H425.924V358.105ZM439.875 368.5V349.6H448.056C451.647 349.6 454.077 351.328 454.077 354.568C454.077 357.052 452.268 358.645 450.513 359.158C452.484 359.509 453.726 361.048 453.726 363.505V368.5H450.702V364.018C450.702 361.399 449.73 360.535 447.165 360.535H442.872V368.5H439.875ZM442.872 357.97H447.435C449.73 357.97 450.999 356.944 450.999 355.027C450.999 353.11 449.73 352.111 447.435 352.111H442.872V357.97Z" fill="#2F2B24"/>
<path d="M177.5 199.45C177.5 189.229 177.5 184.119 179.489 180.215C181.239 176.781 184.031 173.989 187.465 172.239C191.369 170.25 196.479 170.25 206.7 170.25H294.3C304.521 170.25 309.631 170.25 313.535 172.239C316.969 173.989 319.761 176.781 321.511 180.215C323.5 184.119 323.5 189.229 323.5 199.45V250.55C323.5 260.771 323.5 265.881 321.511 269.785C319.761 273.219 316.969 276.011 313.535 277.761C309.631 279.75 304.521 279.75 294.3 279.75H206.7C196.479 279.75 191.369 279.75 187.465 277.761C184.031 276.011 181.239 273.219 179.489 269.785C177.5 265.881 177.5 260.771 177.5 250.55V199.45Z" fill="#E9DAFF"/>
<path d="M296.125 170.25V152C296.125 126.802 275.698 106.375 250.5 106.375C225.302 106.375 204.875 126.802 204.875 152V170.25M250.5 215.875V234.125M206.7 279.75H294.3C304.521 279.75 309.631 279.75 313.535 277.761C316.969 276.011 319.761 273.219 321.511 269.785C323.5 265.881 323.5 260.771 323.5 250.55V199.45C323.5 189.229 323.5 184.119 321.511 180.215C319.761 176.781 316.969 173.989 313.535 172.239C309.631 170.25 304.521 170.25 294.3 170.25H206.7C196.479 170.25 191.369 170.25 187.465 172.239C184.031 173.989 181.239 176.781 179.489 180.215C177.5 184.119 177.5 189.229 177.5 199.45V250.55C177.5 260.771 177.5 265.881 179.489 269.785C181.239 273.219 184.031 276.011 187.465 277.761C191.369 279.75 196.479 279.75 206.7 279.75Z" stroke="#2F2B23" stroke-width="4" stroke-linecap="square"/>
</svg>
