<svg width="24" height="24" viewBox="0 0 24 24" fill="none" xmlns="http://www.w3.org/2000/svg">
<path opacity="0.12" d="M8 14.3255C8 13.8363 8 13.5917 8.05526 13.3616C8.10425 13.1575 8.18506 12.9624 8.29472 12.7834C8.4184 12.5816 8.59136 12.4087 8.93726 12.0628L18.5 2.50001C19.3285 1.67159 20.6716 1.67159 21.5 2.50001C22.3285 3.32844 22.3285 4.67159 21.5 5.50001L11.9373 15.0628C11.5914 15.4087 11.4184 15.5816 11.2166 15.7053C11.0377 15.815 10.8426 15.8958 10.6385 15.9448C10.4083 16 10.1637 16 9.67454 16H8V14.3255Z" fill="#2F2B23"/>
<path d="M11 3.99998H5.2C4.0799 3.99998 3.51984 3.99998 3.09202 4.21797C2.71569 4.40972 2.40973 4.71568 2.21799 5.092C2 5.51983 2 6.07988 2 7.19998V18.8C2 19.9201 2 20.4801 2.21799 20.908C2.40973 21.2843 2.71569 21.5903 3.09202 21.782C3.51984 22 4.0799 22 5.2 22H16.8C17.9201 22 18.4802 22 18.908 21.782C19.2843 21.5903 19.5903 21.2843 19.782 20.908C20 20.4801 20 19.9201 20 18.8V13M7.99997 16H9.67452C10.1637 16 10.4083 16 10.6385 15.9447C10.8425 15.8957 11.0376 15.8149 11.2166 15.7053C11.4184 15.5816 11.5914 15.4086 11.9373 15.0627L21.5 5.49998C22.3284 4.67156 22.3284 3.32841 21.5 2.49998C20.6716 1.67156 19.3284 1.67155 18.5 2.49998L8.93723 12.0627C8.59133 12.4086 8.41838 12.5816 8.29469 12.7834C8.18504 12.9624 8.10423 13.1574 8.05523 13.3615C7.99997 13.5917 7.99997 13.8363 7.99997 14.3255V16Z" stroke="#2F2B23" stroke-width="1.75" stroke-linecap="square"/>
</svg>
