<svg width="24" height="24" viewBox="0 0 24 24" fill="none" xmlns="http://www.w3.org/2000/svg">
<g clip-path="url(#clip0_989_2638)">
<path opacity="0.12" d="M4.55809 16.1491C4.70537 15.7662 4.77901 15.5747 4.90531 15.487C5.01569 15.4104 5.15228 15.3814 5.28427 15.4066C5.43531 15.4354 5.58036 15.5805 5.87046 15.8706L8.12955 18.1297C8.41965 18.4198 8.56469 18.5648 8.59354 18.7159C8.61874 18.8478 8.58976 18.9844 8.51312 19.0948C8.42542 19.2211 8.23396 19.2948 7.85104 19.442L2.5 21.5001L4.55809 16.1491Z" fill="#2F2B23"/>
<path d="M21 20.9999L13 20.9999M2.5 21.4999L8.04927 19.3656C8.40421 19.2291 8.58168 19.1608 8.74772 19.0717C8.8952 18.9925 9.0358 18.9012 9.16804 18.7986C9.31692 18.683 9.45137 18.5486 9.72028 18.2797L21 6.99994C21.5453 6.45469 21.8179 6.18207 21.9636 5.88797C22.2409 5.32842 22.2409 4.67146 21.9636 4.11191C21.8179 3.81782 21.5453 3.54519 21 2.99994C20.4548 2.45469 20.1822 2.18207 19.8881 2.03633C19.3285 1.75905 18.6715 1.75905 18.112 2.03633C17.8179 2.18207 17.5453 2.45469 17 2.99994L5.72028 14.2797C5.45138 14.5486 5.31692 14.683 5.20139 14.8319C5.09877 14.9641 5.0074 15.1047 4.92823 15.2522C4.83911 15.4183 4.77085 15.5957 4.63433 15.9507L2.5 21.4999ZM2.5 21.4999L4.55809 16.1489C4.70537 15.766 4.77901 15.5745 4.90531 15.4868C5.01569 15.4102 5.15228 15.3812 5.28427 15.4064C5.43531 15.4352 5.58036 15.5803 5.87046 15.8704L8.12955 18.1295C8.41965 18.4196 8.56469 18.5646 8.59354 18.7157C8.61874 18.8477 8.58976 18.9843 8.51312 19.0946C8.42542 19.2209 8.23396 19.2946 7.85104 19.4419L2.5 21.4999ZM16 3.99994L20 7.99994" stroke="#2F2B23" stroke-width="1.75" stroke-linecap="square"/>
</g>
<defs>
<clipPath id="clip0_989_2638">
<rect width="24" height="24" fill="white"/>
</clipPath>
</defs>
</svg>
