<svg width="24" height="24" viewBox="0 0 24 24" fill="none" xmlns="http://www.w3.org/2000/svg">
<path fill-rule="evenodd" clip-rule="evenodd" d="M7.1654 1.125L14 1.125C14.2321 1.125 14.4546 1.21719 14.6187 1.38128L20.6187 7.38128C20.7828 7.54538 20.875 7.76794 20.875 8V18.8346C20.875 19.3652 20.875 19.8155 20.8448 20.1849C20.8132 20.5725 20.744 20.9474 20.5616 21.3052C20.286 21.8462 19.8462 22.286 19.3052 22.5616C18.9474 22.744 18.5725 22.8132 18.1848 22.8448C17.8155 22.875 17.3652 22.875 16.8346 22.875H7.16539C6.63483 22.875 6.18455 22.875 5.81515 22.8448C5.42754 22.8132 5.0526 22.744 4.69478 22.5616C4.15381 22.286 3.71399 21.8462 3.43836 21.3052C3.25604 20.9474 3.18682 20.5725 3.15516 20.1849C3.12497 19.8155 3.12499 19.3652 3.125 18.8346V5.1654C3.12499 4.63484 3.12497 4.18455 3.15516 3.81515C3.18682 3.42754 3.25604 3.0526 3.43836 2.69478C3.71399 2.15381 4.15381 1.71399 4.69478 1.43836C5.0526 1.25604 5.42754 1.18682 5.81515 1.15516C6.18455 1.12497 6.63484 1.12499 7.1654 1.125ZM5.95766 2.89934C5.67826 2.92217 5.55926 2.96195 5.48926 2.99762C5.27758 3.10548 5.10548 3.27758 4.99762 3.48926C4.96195 3.55926 4.92217 3.67826 4.89934 3.95766C4.87568 4.24727 4.875 4.62551 4.875 5.2V18.8C4.875 19.3745 4.87568 19.7527 4.89934 20.0423C4.92217 20.3217 4.96195 20.4407 4.99762 20.5107C5.10548 20.7224 5.27758 20.8945 5.48926 21.0024C5.55926 21.0381 5.67826 21.0778 5.95766 21.1007C6.24727 21.1243 6.62551 21.125 7.2 21.125H16.8C17.3745 21.125 17.7527 21.1243 18.0423 21.1007C18.3217 21.0778 18.4407 21.0381 18.5107 21.0024C18.7224 20.8945 18.8945 20.7224 19.0024 20.5107C19.0381 20.4407 19.0778 20.3217 19.1007 20.0423C19.1243 19.7527 19.125 19.3745 19.125 18.8V8.87507L15.5708 8.87507C15.316 8.8751 15.0749 8.87512 14.872 8.85854C14.6511 8.8405 14.3996 8.79853 14.1488 8.67071C13.796 8.49095 13.5091 8.20411 13.3294 7.85131C13.2015 7.60044 13.1596 7.34899 13.1415 7.12812C13.125 6.92521 13.125 6.68411 13.125 6.42929L13.125 2.875H7.2C6.62551 2.875 6.24727 2.87568 5.95766 2.89934ZM14.875 4.11244L17.8876 7.12507H15.6C15.3055 7.12507 15.1373 7.12439 15.0145 7.11435C14.97 7.11072 14.9438 7.10657 14.9306 7.10403C14.9169 7.0949 14.9052 7.08316 14.896 7.06948C14.8935 7.05632 14.8894 7.0301 14.8857 6.98562C14.8757 6.86276 14.875 6.69454 14.875 6.40007V4.11244Z" fill="#2F2B23"/>
<path fill-rule="evenodd" clip-rule="evenodd" d="M10.5 18H13.5V19.5H10.5V18Z" fill="#2F2B23"/>
<path fill-rule="evenodd" clip-rule="evenodd" d="M8.625 13.375C8.625 11.511 10.136 10 12 10C13.864 10 15.375 11.511 15.375 13.375C15.375 14.5983 14.7242 15.6695 13.75 16.2614L13.75 16.825C13.75 17.105 13.75 17.245 13.6955 17.352C13.6476 17.4461 13.5711 17.5226 13.477 17.5705C13.37 17.625 13.23 17.625 12.95 17.625H11.05C10.77 17.625 10.63 17.625 10.523 17.5705C10.4289 17.5226 10.3524 17.4461 10.3045 17.352C10.25 17.245 10.25 17.105 10.25 16.825L10.25 16.2614C9.27578 15.6695 8.625 14.5983 8.625 13.375ZM12 11.75C11.1025 11.75 10.375 12.4775 10.375 13.375C10.375 14.0019 10.73 14.5459 11.25 14.8169V15.875H12.75V14.8169C13.27 14.5459 13.625 14.0019 13.625 13.375C13.625 12.4775 12.8975 11.75 12 11.75Z" fill="#2F2B23"/>
</svg>
